<svg xmlns="http://www.w3.org/2000/svg" viewBox="0 0 100 100" width="100" height="100">
  <!-- 背景圆 -->
  <circle cx="50" cy="50" r="45" fill="#2F3E46" />
  
  <!-- 主体 -->
  <path 
    d="m 43 16 c 6 -3 7 11 18 17 2 1 27 -4 15 10 -3 3 10 17 6 21 -4 5 -10 -6 -23 0 -5 3 1 17 -8 18 -7 0 -7 -13 -11 -15 -5 -3 -6 8 -13 4 -5 -3 3 -12 1 -17 C 26 49 13 43 13 39 14 32 31 42 37 36 41 32 37 19 43 16 Z" 
    fill="#7BA06B" 
    stroke="#FFF" 
    stroke-width="2"
  />
  
  <!-- 五官 -->
  <line x1="35" y1="45" x2="40" y2="50" stroke="#FFF" stroke-width="2" />
  <line x1="45" y1="35" x2="50" y2="40" stroke="#FFF" stroke-width="2" />
  <path
     d="m 54 49 c -1 3 -1 4 -4 4 -3 0 -9 2 -2 -5 6 -6 7 -2 6 1 z"
     fill="#A1C58A"
     stroke="#FFF"
     stroke-width="2"
 />
</svg>